<svg xmlns="http://www.w3.org/2000/svg" viewBox="0 0 128 128">
  <path fill="currentColor" d="M58.7 95.5c-13.2 0-22.4-1.8-22.4-1.8l.5 3.4s9.2 1.8 21.8 1.8c13.6 0 25.1-1.6 25.1-1.6l.6-3.4s-11.8 1.6-25.6 1.6zM41 88.2l-.5 3.5s9.5 1.6 18.7 1.6c10.2 0 19.5-1.4 19.5-1.4l.4-3.5s-8.8 1.4-19.7 1.4c-9.8 0-18.4-1.6-18.4-1.6zM64.5 36.1c-2.3 3.2 3.4 6.6 3.4 10.8 0 4.2-5.4 7.1-8.3 10.5-3 3.5-3.5 7.4-2.4 10.3 1.3 3.1 4.2 5.1 4.2 5.1s-1.5-1.9-.5-5c1.2-3.4 6.2-6.2 9.1-9.7 2.9-3.4 3.4-7.5 2.2-10.6-1.2-3.3-4.2-5.3-4.2-5.3s1.4 1.6.5 4.5c-1 3.1-4 5.8-4 5.8s5.2-3.7 4.7-9.4c-.3-3.6-3.3-5.4-3.3-5.4zM49.6 59.3s-1.4 1.4-1.9 3.8c-.5 2.5.4 5.2.4 5.2s-2.5-1.5-2.2-5.2c.3-3.3 3.7-3.8 3.7-3.8zM64.8 75.8c-7.4 0-13.5 1-13.5 1l.5 3.6s6.1-.9 13.4-.9c7.5 0 13.8 1 13.8 1l.4-3.6s-6.7-1.1-14.6-1.1zM40.2 103.1s8.3 2.5 24.6 2.5c16.2 0 25.4-2.3 25.4-2.3l.7-3.6s-9.3 2.4-26 2.4c-16.5 0-24.6-2.6-24.6-2.6l-.1 3.6z"/>
</svg>
